<svg xmlns="http://www.w3.org/2000/svg" width="553" height="389" viewBox="0 0 553 389">
  <g id="Group_1196" data-name="Group 1196" transform="translate(-149 -136)">
    <path id="Rectangle_3055" data-name="Rectangle 3055" d="M1,1V388H552V1H1M0,0H553V389H0Z" transform="translate(149 136)" fill="none"/>
    <g id="designer_outline" data-name="designer/outline" transform="translate(117.989 181)">
      <g id="designer_outline-2" data-name="designer_outline" transform="translate(71.011)">
        <g id="hand_with_text_1_" transform="translate(148.331 22.646)">
          <path id="hand_11_" d="M.546.179A1.165,1.165,0,0,1,2.152.546C4.166,3.754,11.07,8.274,21.347,13.472c7.235,3.659,15.159,7.188,22.839,10.365a1.166,1.166,0,0,1-.891,2.155c-7.729-3.2-15.7-6.749-23-10.439l-.637-.324C9.317,9.958,2.465,5.429.179,1.786A1.166,1.166,0,0,1,.546.179Z" transform="translate(43.187 45.569)"/>
          <path id="hand_10_" d="M49.532,1.249c2.71-1.513,4.726-1.727,6.523-.223,2.071,1.735,1.868,4.278.135,7.169a1.166,1.166,0,1,1-2-1.2c1.216-2.028,1.324-3.38.368-4.18-.879-.736-1.931-.624-3.892.471l-.112.064c-1.244.731-6.209,4.079-7.8,5.039a42.354,42.354,0,0,1-14.3,5.637C22.3,15.211,12.686,24.786,7.12,35.823.481,48.989.488,61.442,8.828,70.02a1.166,1.166,0,1,1-1.671,1.626C-1.994,62.233-2,48.735,5.039,34.773,10.9,23.155,21.01,13.085,28.013,11.735A40.07,40.07,0,0,0,41.551,6.391l.169-.1c1.713-1.056,6.553-4.316,7.753-5.006Z" transform="translate(0 0)"/>
          <path id="Path" d="M0,0V4.664c5.4.389,9.712,1.244,10.838,1.866,2.447,1.4,2.836,6.685-2.875,6.491-2.175-.078-5.089-.35-7.925-.661v1.632c5.672,1.866,10.527,3.731,11.421,4.742,2.02,2.371-1.36,6.841-7.148,5.014L.039,22.582V24.1a56.7,56.7,0,0,1,7.808,3.654,2.364,2.364,0,0,1,.5,2.6h57.22V0H0Z" transform="translate(49.402 6.39)" fill="#fff"/>
          <path id="Path_-_Outline" data-name="Path - Outline" d="M-1.5-1.5H66.506V31.29H6.36l.559-1.615A1.233,1.233,0,0,0,6.8,28.412c-.232-.182-1.446-.947-7.508-3.474l-.749-.312v-3.92l5.856,1.6a7.521,7.521,0,0,0,2.255.371,3.925,3.925,0,0,0,3.727-1.919,1.385,1.385,0,0,0-.117-1.5c-.134-.141-1.444-1.282-10.885-4.387l-.837-.275V10.719l1.349.148c3.36.368,6,.589,7.835.654.087,0,.173,0,.259,0,.955,0,2.612-.206,2.979-1.587a2.485,2.485,0,0,0-1-2.632c-.867-.47-4.924-1.324-10.33-1.713L-1.5,5.513ZM64.072.933H.933V3.257c4.682.4,8.87,1.185,10.209,1.925l.016.009A4.6,4.6,0,0,1,13.1,7.505a4.921,4.921,0,0,1,.211,3.059,4.221,4.221,0,0,1-1.755,2.449,6.31,6.31,0,0,1-3.576.946c-.114,0-.227,0-.344-.006-1.148-.041-2.541-.135-4.213-.285,1.647.577,3.082,1.114,4.289,1.6,3.146,1.277,3.989,1.938,4.372,2.372l.015.017a3.762,3.762,0,0,1,.484,4.115,5.431,5.431,0,0,1-2.231,2.38,7.327,7.327,0,0,1-3.706.952,9.006,9.006,0,0,1-1.024-.059,13.13,13.13,0,0,1,2.7,1.468l.013.011A3.089,3.089,0,0,1,9.39,28.367a3.761,3.761,0,0,1,.06.489H64.072Z" transform="translate(49.686 6.673)"/>
          <g id="lines_of_text_1_" transform="translate(59.075 12.92)">
            <path id="Path-2" data-name="Path" d="M16.471,0a1.166,1.166,0,0,1,.068,2.33l-.068,0H1.165A1.166,1.166,0,0,1,1.1,0l.068,0Z" transform="translate(0.155 15.314)" fill="#cdbca5"/>
            <path id="Path-3" data-name="Path" d="M46.343,0a1.166,1.166,0,0,1,.068,2.33l-.068,0H1.165A1.166,1.166,0,0,1,1.1,0l.068,0Z" transform="translate(0 10.067)" fill="#cdbca5"/>
            <path id="Path-4" data-name="Path" d="M48.829,0A1.166,1.166,0,0,1,48.9,2.33l-.068,0H1.165A1.166,1.166,0,0,1,1.1,0l.068,0Z" transform="translate(0.311 5.053)" fill="#cdbca5"/>
            <path id="Path-5" data-name="Path" d="M45.023,0a1.166,1.166,0,0,1,.068,2.33l-.068,0H1.165A1.166,1.166,0,0,1,1.1,0l.068,0Z" transform="translate(1.321 0)" fill="#cdbca5"/>
          </g>
          <g id="fingers_1_" transform="translate(18.403 9.65)">
            <path id="Path-6" data-name="Path" d="M10.086,1.928C15.052.3,21.776-.251,28.987.1l.38.02c5.921.316,11.487,1.241,13.049,2.134a4.866,4.866,0,0,1,2.184,5.1c-.482,2.284-2.555,3.679-5.676,3.572l-.432-.017c-1.109-.048-2.428-.141-3.926-.273l-.182-.016.9.315c4.214,1.5,7.186,2.827,8.021,3.732l.045.05c1.437,1.687,1.027,4.1-.753,5.7A7.183,7.183,0,0,1,36.744,22L36.6,21.98l.478.224a16.736,16.736,0,0,1,2.418,1.315l.095.073c1.706,1.406,1.4,4.377-.66,5.972-1.845,1.426-4.691,1.663-8.369.548l-.252-.078.3.189a15.224,15.224,0,0,1,1.407.992l.054.046a2.654,2.654,0,0,1,.22,3.667,7.113,7.113,0,0,1-3.75,2.573c-3.7,1.19-8.374.387-13.37-2.748l-.2-.125-.09.18a9.865,9.865,0,0,1-.957,1.514l-.144.183c-2.65,3.283-6.959,4.426-13,2.261a1.166,1.166,0,0,1,.785-2.2c5.124,1.835,8.386.969,10.4-1.531A7.591,7.591,0,0,0,13.015,33.3c.071-.164.131-.318.18-.458l.035-.1c.03-.092.047-.15.051-.168a1.165,1.165,0,0,1,1.8-.671c4.963,3.517,9.433,4.446,12.736,3.383a4.865,4.865,0,0,0,2.532-1.658,1.094,1.094,0,0,0,.221-.536v-.028a.021.021,0,0,0-.008-.013l-.1-.083a59.025,59.025,0,0,0-6.271-3.771l-1-.545c-1.532-.835-3.161-1.7-4.8-2.566L17.3,25.508,15.319,24.48a1.166,1.166,0,0,1-.051-2.048,1.268,1.268,0,0,1,.386-.143l.074-.013c1.175-.17,4.379.83,11.221,3.874l1.386.622c4.534,2.052,7.627,2.138,9.17.946.951-.735,1.073-1.939.613-2.318a62.63,62.63,0,0,0-8.065-3.715l-1.278-.528-.342-.14c-1.993-.817-4.115-1.668-6.25-2.511L20.4,17.8,18.3,16.99a1.166,1.166,0,0,1,.661-2.229l.068.017,16.587,4.586.04.012c2.267.716,4.2.365,5.372-.687.91-.82,1.081-1.822.538-2.459-.938-1.1-10.087-4.339-19.861-7.1a1.166,1.166,0,0,1,.4-2.286l1.9.253.236.031c1.594.207,3.269.413,4.946.606l1.038.117q.77.086,1.512.164l1.056.108c2.511.251,4.62.414,6.2.468,2.055.07,3.084-.623,3.317-1.724a2.546,2.546,0,0,0-1.06-2.59c-1.133-.648-6.464-1.534-12.017-1.83-7.092-.379-13.7.138-18.429,1.692a1.166,1.166,0,0,1-.728-2.216Z" transform="translate(0 0)"/>
          </g>
        </g>
        <path id="shirt_4_" d="M127.182,39.607c-1.515-.505-4.39-1.2-8.08-2.06l7.225,3.148C115.1,56.126,94.474,70.157,73.031,65.376,40.4,58.108,59.085,26.7,60.211,24.72l4.817,1.9-.194-.389C61.416,24.837,16,6.374,0,0,.5.155.466,53.755.466,53.755L30.261,65.376s-12.12,13.1-15.733,24.254a29.915,29.915,0,0,0-.7,8.979C37.8,113.262,61.26,125.466,61.26,125.466L90.511,90.6l55.239,26.391c-16.82,26.858-49.568,47.691-67.242,55.659a30.545,30.545,0,0,1-22.686.933,174.952,174.952,0,0,1-34.884-16.947L13.48,194.846l126.017-.311-6.682-59.74C188.4,71.712,150.761,47.264,127.182,39.607Z" transform="translate(291.663 104.79)"/>
        <path id="neck_3_" d="M44.62.1a1.165,1.165,0,0,1,1.5.541L46.154.7,60.538,33.746,74.1,39.665a1.166,1.166,0,0,1,.517,1.7l-.04.059A69.093,69.093,0,0,1,51.345,61.687c-10.185,5.331-20.9,7.18-31.258,4.866C6.455,63.521.209,56.116.005,45.808A38.025,38.025,0,0,1,3.293,30.682c.648-1.558,1.338-3.019,2.048-4.379.26-.5.508-.955.751-1.389l.172-.3.244-.426a1.165,1.165,0,0,1,1.366-.535l.068.024,1.714.664L5.31,16.873a1.167,1.167,0,0,1,.36-1.557l.06-.038a1.165,1.165,0,0,1,1.556.36l.038.06,6.021,10.339a1.166,1.166,0,0,1-1.368,1.7l-.059-.021-3.879-1.5-.029.053c-.156.282-.315.575-.478.884l-.123.235c-.68,1.3-1.342,2.7-1.962,4.2a35.817,35.817,0,0,0-3.11,14.184C2.518,54.98,8,61.475,20.594,64.277c9.788,2.186,19.948.432,29.671-4.657a66.64,66.64,0,0,0,21.481-18.3l.079-.1L59.187,35.7a1.166,1.166,0,0,1-.568-.531l-.034-.072L44.017,1.632A1.166,1.166,0,0,1,44.62.1Z" transform="translate(344.353 104.79)"/>
        <g id="computer_screen_2_" transform="translate(45.029 92.352)">
          <path id="Path-7" data-name="Path" d="M13.638.86a1.165,1.165,0,0,1,2.265.546l-.016.067L2.691,49.985H84.96L72.254,1.657a1.166,1.166,0,0,1,.765-1.4l.066-.019a1.165,1.165,0,0,1,1.4.765l.019.066L87.6,50.854a1.166,1.166,0,0,1-1.058,1.461l-.069,0H1.166a1.166,1.166,0,0,1-1.141-1.4l.016-.067Z" transform="translate(83.868 150.264)"/>
          <path id="Oval" d="M11.46,22.932a11.464,11.464,0,0,1-8.1-19.574A11.463,11.463,0,1,1,15.92,22.031,11.382,11.382,0,0,1,11.46,22.932Zm0-20.6a9.137,9.137,0,0,0-3.553,17.55A9.136,9.136,0,0,0,15.013,3.05,9.067,9.067,0,0,0,11.46,2.332Z" transform="translate(115.062 162.741)"/>
          <path id="Path-8" data-name="Path" d="M.9.031a1.165,1.165,0,0,1,1.384.8L2.3.9,13.721,49.485a1.165,1.165,0,0,1-2.251.6l-.018-.066L.031,1.433A1.166,1.166,0,0,1,.9.031Z" transform="translate(148.12 150.264)" fill="#2e186a"/>
          <path id="Path-9" data-name="Path" d="M242.593,0a5.479,5.479,0,0,1,5.437,5.321v97.135a1.165,1.165,0,0,1-2.329.069l0-.069V5.442a3.149,3.149,0,0,0-3.013-3.108l-.1,0H5.438A3.149,3.149,0,0,0,2.332,5.346l0,.1V14.07A1.165,1.165,0,0,1,0,14.139l0-.069V5.442A5.479,5.479,0,0,1,5.318,0H242.593Z" transform="translate(0 0)"/>
          <path id="Path-10" data-name="Path" d="M1.165,0A1.166,1.166,0,0,1,2.329,1.1l0,.069V87.22a3.149,3.149,0,0,0,3.012,3.108H242.581l.033-.005.025,0a2.631,2.631,0,0,1,.382-.03,1.166,1.166,0,0,1,.068,2.33l-.079,0-.18.023a1.616,1.616,0,0,1-.195.014H5.438A5.479,5.479,0,0,1,0,87.341V1.166A1.166,1.166,0,0,1,1.165,0Z" transform="translate(0 59.779)"/>
          <path id="Path-11" data-name="Path" d="M196.988,0a5.427,5.427,0,0,1,5.437,5.32V78.086a1.165,1.165,0,0,1-2.329.069l0-.069V5.442a3.1,3.1,0,0,0-3.01-3.108H1.165A1.166,1.166,0,0,1,1.1,0l.068,0Z" transform="translate(24.551 9.406)"/>
          <path id="Path-12" data-name="Path" d="M1.165,0A1.166,1.166,0,0,1,2.329,1.1l0,.069V78.281a3.1,3.1,0,0,0,3.01,3.108H209.807a3.1,3.1,0,0,0,3.106-3.012v-.1a1.165,1.165,0,1,1,2.331,0,5.427,5.427,0,0,1-5.317,5.44H5.438A5.427,5.427,0,0,1,0,78.4V1.166A1.166,1.166,0,0,1,1.165,0Z" transform="translate(11.732 55.97)"/>
          <path id="Path-13" data-name="Path" d="M1.165,0A1.166,1.166,0,0,1,2.329,1.1l0,.069v4.82A1.165,1.165,0,0,1,0,6.054l0-.069V1.166A1.166,1.166,0,0,1,1.165,0Z" transform="translate(235.407 143.968)" fill="#2e186a"/>
          <path id="Path-14" data-name="Path" d="M1.165,0A1.166,1.166,0,0,1,2.329,1.1l0,.069V94.178A1.165,1.165,0,0,1,0,94.246l0-.069V1.166A1.166,1.166,0,0,1,1.165,0Z" transform="translate(235.407 1.166)"/>
        </g>
        <g id="circle_1_" transform="translate(183.321 119.327)">
          <g id="Group" transform="translate(0.252 0.253)">
            <path id="Path-15" data-name="Path" d="M5.258,36.2l-.6-.617A21.793,21.793,0,0,1,4.954,4.912,22.026,22.026,0,0,1,20.528-1.5a22.194,22.194,0,0,1,5.258.63,21.954,21.954,0,0,1,4.8,1.788A22.185,22.185,0,0,1,38.21,7.363l.506.678-.459.71a13.331,13.331,0,0,0-1.821,6.138,53.192,53.192,0,0,0,.014,7.09,39.652,39.652,0,0,1,.033,5.32l-.107,1.085-1.09.013a63.774,63.774,0,0,0-15.048,2.46,96.244,96.244,0,0,0-14.2,4.988ZM20.528.933A19.6,19.6,0,0,0,2.472,12.827,19.372,19.372,0,0,0,5.834,33.271a100.819,100.819,0,0,1,13.771-4.765,71.362,71.362,0,0,1,14.515-2.511c.027-1.144-.036-2.493-.1-3.9-.208-4.4-.464-9.819,1.748-13.909a19.75,19.75,0,0,0-6.288-5.1A19.434,19.434,0,0,0,20.528.933Z" transform="translate(3.583 4.349)" fill="#937558"/>
            <rect id="Rectangle" width="3.213" height="3.193" transform="translate(0 23.155)"/>
            <rect id="Rectangle-2" data-name="Rectangle" width="3.213" height="3.193" transform="translate(22.505 0)"/>
          </g>
          <path id="Path-16" data-name="Path" d="M46.3,0a.777.777,0,0,1,.775.719l0,.058V5.325a.777.777,0,0,1-1.552.058l0-.058V1.554H1.554V41.978a.777.777,0,0,1-.719.775l-.058,0A.777.777,0,0,1,0,42.036l0-.058V.777A.777.777,0,0,1,.719,0L.777,0Z" transform="translate(0.971 1.049)"/>
          <rect id="Rectangle-3" data-name="Rectangle" width="3.496" height="3.498" transform="translate(0 0)"/>
          <rect id="Rectangle-4" data-name="Rectangle" width="3.496" height="3.498" transform="translate(45.411 0)"/>
        </g>
        <path id="keyboard_2_" d="M138.175,9.056H4.273A4.262,4.262,0,0,1,0,4.781V4.275A4.262,4.262,0,0,1,4.273,0h133.9a4.262,4.262,0,0,1,4.273,4.275v.505A4.287,4.287,0,0,1,138.175,9.056Z" transform="translate(101.473 291.707)"/>
        <g id="hand_5_" transform="translate(177.348 124.264)">
          <path id="Path-17" data-name="Path" d="M5.69.621a2.417,2.417,0,0,1,3.638.468c1.129,1.433,1.844,4.072,2.829,9.49l.995,5.622.133.729a65.088,65.088,0,0,0,2.09,8.816,1.165,1.165,0,1,1-2.209.744l-.115-.348a69.772,69.772,0,0,1-2.057-8.781l-.245-1.354c-.264-1.484-.713-4.052-.8-4.539l-.125-.688c-.864-4.712-1.532-7.189-2.291-8.2L7.39,2.392c-.065-.081-.085-.077-.174-.006l-.1.081a11.881,11.881,0,0,0-2.472,3.9,23.573,23.573,0,0,0-1.865,6.485,46.861,46.861,0,0,0-.151,11.727l.048.443c.041.359.082.694.124,1l.065.456.047.3a1.165,1.165,0,1,1-2.3.4l-.046-.287c-.015-.1-.033-.218-.052-.354-.071-.5-.142-1.076-.208-1.711A49.094,49.094,0,0,1,.472,12.5,25.846,25.846,0,0,1,2.533,5.371l.19-.4A12.4,12.4,0,0,1,5.69.621Z" transform="translate(45.233 0)"/>
          <path id="hand_7_" d="M24.389,4.418,30.1,2.437C33.142,1.362,38.853.582,46.519,0a1.166,1.166,0,0,1,.175,2.325l-1.225.1C38.831,2.961,33.8,3.667,31.107,4.557l-6.09,2.112-1.553.55C21.259,8,19.22,8.754,17.269,9.5l-.867.334c-2,.776-3.824,1.522-5.464,2.239l-.349.153A44.2,44.2,0,0,0,4.1,15.6,7.19,7.19,0,0,0,2.538,16.91a1.562,1.562,0,0,0-.15.222l-.012.022.018.013a1.27,1.27,0,0,0,.143.083l.06.029a5.6,5.6,0,0,0,1.451.378,28.876,28.876,0,0,0,5.167.154,114.5,114.5,0,0,0,12.12-1.28,1.166,1.166,0,0,1,.354,2.3l-.888.134A113.608,113.608,0,0,1,9.307,20.143l-.629.022C3.667,20.319.8,19.814.136,17.919-.736,15.457,2.6,13.2,9.649,10.094c2-.882,4.268-1.806,6.787-2.771,2.272-.871,4.659-1.743,7.28-2.668Z" transform="translate(0 25.846)"/>
          <path id="hand_6_" d="M18.53,0h.046c.781.031,2.269.732,4.851,2.636l.414.309C27.848,5.969,33.431,11.12,40.866,18.9l.26.273.036.039c5.194,5.966,14.708,13.506,27.7,22.23l.395.265c4.937,3.307,10.314,6.744,16.062,10.283,10.328,6.357,21.37,12.75,32.439,18.884l1.23.68c3.683,2.034,7.125,3.905,10.252,5.581l2.137,1.141,2.083,1.1,28.648-34.146a1.165,1.165,0,0,1,1.326-.333l.069.03L218.7,71.32a1.166,1.166,0,0,1,.486,1.67c-7.791,12.488-19.455,24.45-33.567,35.237a184.942,184.942,0,0,1-34.185,20.868,31.7,31.7,0,0,1-23.55.97c-25.28-8.854-48.044-23.788-68.242-43.088A247.058,247.058,0,0,1,28.895,51.32c-3.017-4.256-5.614-8.21-7.788-11.76l-.475-.781q-.691-1.142-1.248-2.106L19,36l-.1.033a12.149,12.149,0,0,1-4.526.4l-.226-.016a46.025,46.025,0,0,1-5.494-.811L6.061,35.12c-.585-.109-1.062-.194-1.541-.276l-.131-.022c-1.248-.212-2.329-.366-3.341-.469a1.166,1.166,0,0,1,.236-2.32c.98.1,2.012.243,3.175.436l.588.1c.579.1,1.166.207,1.947.354l1.242.234c6.389,1.192,8.764,1.351,10.578.406l.123-.066a1.165,1.165,0,0,1,1.555.4l.048.085.144.261q.171.308.4.713l.438.759q.687,1.178,1.571,2.626c2.147,3.507,4.716,7.417,7.7,11.629A244.746,244.746,0,0,0,61.252,85.29c19.973,19.085,42.462,33.838,67.4,42.574a29.373,29.373,0,0,0,21.822-.9A182.642,182.642,0,0,0,184.2,106.374c13.307-10.17,24.385-21.383,32-33.04l.308-.476-53.2-25.435L134.64,81.6a1.165,1.165,0,0,1-1.364.317l-.067-.032-1.532-.805q-.98-.518-2.16-1.147l-1.81-.968c-3.02-1.621-6.324-3.418-9.849-5.365C106.349,67.238,94.84,60.59,84.095,53.976c-5.532-3.405-10.723-6.718-15.515-9.915l-.623-.416C54.874,34.881,45.214,27.276,39.735,21.119l-.315-.358-.747-.78c-7.267-7.574-12.68-12.531-16.5-15.368l-.133-.1A20.155,20.155,0,0,0,18.93,2.537a4.4,4.4,0,0,0-.418-.175l-.092-.029h-.474a1.166,1.166,0,0,1-1.163-1.1l0-.069A1.166,1.166,0,0,1,17.878,0l.068,0Z" transform="translate(41.828 25.185)"/>
          <path id="Path-18" data-name="Path" d="M16.721.584a1.167,1.167,0,0,1-.368,1.555l-.564.336-.1.06c-.488.3-1.033.636-1.62,1.014-1.677,1.082-3.353,2.255-4.913,3.476a30.044,30.044,0,0,0-5.245,5.017C2.7,13.618,2.186,14.954,2.368,15.962c.355,1.967,1.107,2.993,2.122,3.412a3.412,3.412,0,0,0,1.969.145c.054-.011.1-.022.148-.033l.1-.028a1.166,1.166,0,0,1,.753,2.207l-.1.032c-.113.034-.262.072-.441.108A5.661,5.661,0,0,1,3.6,21.53C1.811,20.79.564,19.089.074,16.377c-.323-1.79.419-3.709,1.99-5.754A32.162,32.162,0,0,1,7.721,5.189c1.621-1.269,3.354-2.482,5.086-3.6l.446-.286c.365-.232.712-.448,1.037-.646l.581-.35.258-.152A1.165,1.165,0,0,1,16.721.584Z" transform="translate(17.533 33.464)"/>
          <path id="Path-19" data-name="Path" d="M13.9.5a1.166,1.166,0,0,1-.291,1.623l-.327.234-.157.114c-.393.288-.832.619-1.306.989-1.352,1.055-2.7,2.2-3.963,3.394a26.76,26.76,0,0,0-4.271,4.972C2.538,13.5,2.143,14.919,2.418,16c.463,1.816,1.219,2.78,2.168,3.171a3.28,3.28,0,0,0,2.077.08c.132-.034.232-.067.292-.089L7,19.142a1.166,1.166,0,0,1,.927,2.14,4.841,4.841,0,0,1-.677.224,5.528,5.528,0,0,1-3.553-.18C2.026,20.636.795,19.068.16,16.574c-.462-1.814.1-3.82,1.45-5.985A28.917,28.917,0,0,1,6.254,5.161c1.317-1.249,2.725-2.442,4.133-3.54l.363-.281c.356-.273.691-.524,1-.751l.243-.177.285-.2A1.165,1.165,0,0,1,13.9.5Z" transform="translate(23.681 39.8)"/>
          <path id="Path-20" data-name="Path" d="M11.487.486a1.167,1.167,0,0,1-.209,1.582l-.361.268-.079.059c-.311.235-.659.5-1.034.8-1.071.857-2.142,1.785-3.138,2.746A23.035,23.035,0,0,0,3.49,9.612c-1.763,2.654-1.581,4.168,1,5.111,5.24,1.9,8.731,2.179,10.782,1.574l.131-.04.132-.046.041-.087.027-.061a2.036,2.036,0,0,0-.008-1.843c-.586-1.056-2.314-1.957-5.58-2.456a1.166,1.166,0,0,1,.352-2.305c3.909.6,6.266,1.826,7.266,3.63a4.291,4.291,0,0,1,.115,3.886,4.506,4.506,0,0,1-.425.794,1.166,1.166,0,0,1-.306.3,4.091,4.091,0,0,1-1.086.464c-2.571.758-6.559.442-12.239-1.62C-.556,15.361-.95,12.083,1.549,8.321a25.221,25.221,0,0,1,3.5-4.054C6.1,3.252,7.225,2.278,8.349,1.379c.281-.225.548-.434.8-.625L9.521.469,9.86.219A1.165,1.165,0,0,1,11.487.486Z" transform="translate(30.473 47.535)"/>
        </g>
        <path id="line_8_" d="M473.581,0a1.034,1.034,0,0,1,.061,2.066l-.061,0H1.033A1.034,1.034,0,0,1,.972,0l.061,0Z" transform="translate(0 298.641)"/>
        <g id="head_3_" transform="translate(323.159)">
          <path id="face_3_" d="M33.793,102.351h0a39.885,39.885,0,0,1-14.112-2.63A26.874,26.874,0,0,1,6.036,88.546a35.6,35.6,0,0,1-3.8-8.585A53.147,53.147,0,0,1,.3,69.656,81.554,81.554,0,0,1,.444,54.27,71.744,71.744,0,0,1,2.855,41.235l.229-.753A127.03,127.03,0,0,1,9.2,24.217a66.145,66.145,0,0,1,6.979-11.9A41.091,41.091,0,0,1,20,7.93a31.4,31.4,0,0,1,4.032-3.394,25.906,25.906,0,0,1,4.25-2.43,23.846,23.846,0,0,1,4.469-1.5A24.872,24.872,0,0,1,38.262,0a32.151,32.151,0,0,1,7.882,1.044A63.778,63.778,0,0,1,57.608,5.313l.664.307c.728.338,2.7,1.273,3.76,1.775l.12.057,1.266.6c1.183.549,2.124.969,2.964,1.319l.45.185c8.172,3.3,14.041,10.826,16.525,21.185a47.292,47.292,0,0,1,1.175,7.873,56.2,56.2,0,0,1-.1,8.5,67.431,67.431,0,0,1-4.206,18.079,66.081,66.081,0,0,1-4.24,9.047,65.435,65.435,0,0,1-5.5,8.219,61.019,61.019,0,0,1-6.565,7.13,53.921,53.921,0,0,1-7.449,5.78,45.508,45.508,0,0,1-11.08,5.209A39.273,39.273,0,0,1,33.793,102.351ZM38.261,2.333a22.553,22.553,0,0,0-5,.549A21.509,21.509,0,0,0,29.1,4.3a23.887,23.887,0,0,0-3.985,2.33,29.684,29.684,0,0,0-3.8,3.282,39.743,39.743,0,0,0-3.618,4.272,65.664,65.664,0,0,0-6.678,11.661A128.812,128.812,0,0,0,5.086,41.909l-.069.229A70.5,70.5,0,0,0,2.746,54.683a79.086,79.086,0,0,0-.13,14.755,50.889,50.889,0,0,0,1.808,9.712,33.419,33.419,0,0,0,3.52,8.034A24.627,24.627,0,0,0,20.5,97.539a37.56,37.56,0,0,0,13.289,2.479A36.96,36.96,0,0,0,44.74,98.337,43.18,43.18,0,0,0,55.221,93.4a51.6,51.6,0,0,0,7.146-5.549,58.7,58.7,0,0,0,6.308-6.859,63.106,63.106,0,0,0,5.288-7.915,63.735,63.735,0,0,0,4.085-8.717c4.288-11.318,5.395-22.957,3.117-32.772a36.6,36.6,0,0,0-2.208-6.648,29.262,29.262,0,0,0-3.3-5.654A24.16,24.16,0,0,0,71.3,14.816a21.952,21.952,0,0,0-5.346-3.1c-.95-.385-1.959-.828-3.273-1.435l-.893-.416-.888-.42-.016-.008L58.46,8.286l-1.5-.7A62.9,62.9,0,0,0,45.577,3.307,29.863,29.863,0,0,0,38.261,2.333Z" transform="translate(0 19.919)"/>
          <g id="hair_6_" transform="translate(2.008)">
            <path id="hair_7_" d="M96.086,18.192C83.462,8.008,68.778-.115,53.045,0,4.526,2.644-7.632,33.739,4.216,54.65h0c7.886-22.31,17.442-30.9,26.959-33,3.147,16.4,25.444,38.246,49.839,48.041l-.117.7c7.031,1.788,17.364,6.491,13.48,18.657-5.361,16.83-21.715,9.406-23.774,8.4a59.472,59.472,0,0,1-6.254,7.968l13.616,34.016,42.987,8.778c3.3,1.2,10.445-22.311,10.639-25.848C132.6,100.32,136.448,51.54,96.086,18.192Z" transform="translate(0)"/>
          </g>
          <path id="ear_3_" d="M10.16.948A1.165,1.165,0,0,1,11.523.021c4.959.946,8.629,2.283,11.4,4.708,3.845,3.364,5.009,8.307,2.892,14.944C23.6,26.605,19.448,30.253,14,31.092A20.863,20.863,0,0,1,3.9,29.855c-.87-.309-1.668-.641-2.379-.973l-.3-.143C.94,28.6.732,28.495.6,28.422A1.166,1.166,0,0,1,1.668,26.35l.251.131.215.108q.172.085.374.179c.646.3,1.377.605,2.173.888a18.646,18.646,0,0,0,8.963,1.129c4.564-.7,8-3.723,9.953-9.824,1.845-5.784.911-9.752-2.206-12.478-2.379-2.082-5.721-3.3-10.3-4.173A1.166,1.166,0,0,1,10.16.948Z" transform="translate(71.679 69.769)"/>
          <path id="mouth_3_" d="M11,.331A1.166,1.166,0,0,1,12.622,2C8.862,5.666,5.078,5.831,1.884,3.84A8.759,8.759,0,0,1,.745,3,5.7,5.7,0,0,1,.3,2.573,1.166,1.166,0,0,1,1.976.95l.11.113c.045.044.11.105.2.18a6.441,6.441,0,0,0,.835.617C5.448,3.314,8.052,3.2,11,.331Z" transform="translate(21.685 95.151)"/>
          <path id="nose_3_" d="M13.582.689a1.165,1.165,0,0,1,2.153.892l-.026.063L2.794,30.428l6.627,1.714a1.166,1.166,0,0,1,.852,1.354l-.015.067a1.165,1.165,0,0,1-1.353.852L8.838,34.4.874,32.34a1.166,1.166,0,0,1-.8-1.542L.1,30.734Z" transform="translate(16.673 48.858)"/>
          <path id="eyebrow_3_" d="M.7.717C4.266-.855,7.5.27,10.173,3a14.8,14.8,0,0,1,1.612,1.965l.133.2c.209.314.36.566.45.732a1.166,1.166,0,0,1-2.013,1.173l-.114-.2-.026-.043c-.1-.161-.214-.342-.349-.539A12.493,12.493,0,0,0,8.508,4.632c-2.062-2.106-4.337-2.9-6.873-1.78A1.166,1.166,0,0,1,.7.717Z" transform="translate(44.293 51.855)"/>
          <path id="eyebrow_2_" d="M.555,1.221C4-.9,7.462-.1,10.542,2.412A14.951,14.951,0,0,1,12.2,4l.153.172c.216.248.375.447.473.58a1.166,1.166,0,0,1-1.832,1.44l-.157-.2c-.1-.129-.228-.275-.37-.433a12.64,12.64,0,0,0-1.4-1.337C6.676,2.265,4.224,1.7,1.776,3.207A1.166,1.166,0,0,1,.555,1.221Z" transform="translate(9.992 42.524)"/>
          <ellipse id="eye_4_" cx="4.236" cy="2.719" rx="4.236" ry="2.719" transform="matrix(0.214, -0.977, 0.977, 0.214, 37.401, 71.835)"/>
          <ellipse id="eye_II_4_" cx="4.236" cy="2.719" rx="4.236" ry="2.719" transform="matrix(0.214, -0.977, 0.977, 0.214, 9.153, 65.754)"/>
        </g>
        <g id="square_2_" transform="translate(17.099 135.535)">
          <rect id="Rectangle-5" data-name="Rectangle" width="61.527" height="61.548" transform="translate(148.376 56.824) rotate(153.737)" fill="#fff"/>
          <path id="Rectangle_-_Outline" data-name="Rectangle - Outline" d="M0,0H63.96V63.982H0ZM61.527,2.433H2.433V61.548H61.527Z" transform="translate(150.005 57.377) rotate(153.737)" fill="#937558"/>
          <g id="Group-2" data-name="Group" transform="translate(74.818 10.455)">
            <path id="Path-21" data-name="Path" d="M1.22,0A1.166,1.166,0,0,1,2.368,1.113v.069L2.346,2.931l1.748.023A1.166,1.166,0,0,1,5.243,4.067v.069A1.166,1.166,0,0,1,4.132,5.285H4.063L1.15,5.247A1.166,1.166,0,0,1,0,4.134V4.066L.039,1.151A1.166,1.166,0,0,1,1.22,0Z" transform="translate(0 58.652)"/>
            <path id="Path-22" data-name="Path" d="M44.5,2.913h-.016l-6.19-.083a1.167,1.167,0,0,1-1.15-1.182A1.17,1.17,0,0,1,38.307.5h.016l6.191.083a1.166,1.166,0,0,1,1.15,1.181A1.17,1.17,0,0,1,44.5,2.913ZM32.117,2.747H32.1l-6.19-.083a1.166,1.166,0,0,1-1.15-1.182A1.17,1.17,0,0,1,25.926.332h.016l6.19.083A1.166,1.166,0,0,1,33.282,1.6,1.171,1.171,0,0,1,32.117,2.747ZM19.736,2.581h-.016L13.531,2.5A1.166,1.166,0,0,1,13.546.166h.016l6.19.083A1.166,1.166,0,0,1,20.9,1.43,1.171,1.171,0,0,1,19.736,2.581ZM7.356,2.415H7.34L1.15,2.332A1.166,1.166,0,0,1,0,1.151,1.171,1.171,0,0,1,1.166,0h.016l6.19.083a1.167,1.167,0,0,1,1.15,1.182A1.169,1.169,0,0,1,7.356,2.415Z" transform="translate(9.129 61.684)"/>
            <path id="Path-23" data-name="Path" d="M4.133,0A1.166,1.166,0,0,1,5.282,1.113v.069L5.244,4.1A1.166,1.166,0,0,1,4.132,5.246H4.063L1.15,5.208a1.166,1.166,0,0,1-.037-2.331h.068L2.929,2.9,2.952,1.15A1.166,1.166,0,0,1,4.065,0Z" transform="translate(58.657 59.468)"/>
            <path id="Path-24" data-name="Path" d="M1.166,45.689H1.151A1.167,1.167,0,0,1,0,44.509l.078-6.194a1.17,1.17,0,0,1,1.165-1.151h.015a1.167,1.167,0,0,1,1.151,1.181l-.078,6.194A1.17,1.17,0,0,1,1.166,45.689ZM1.321,33.3H1.306A1.167,1.167,0,0,1,.156,32.121l.078-6.194A1.17,1.17,0,0,1,1.4,24.776h.015a1.167,1.167,0,0,1,1.151,1.181L2.486,32.15A1.17,1.17,0,0,1,1.321,33.3Zm.156-12.388H1.462A1.166,1.166,0,0,1,.311,19.733l.078-6.194a1.17,1.17,0,0,1,1.165-1.151h.015a1.167,1.167,0,0,1,1.151,1.181l-.078,6.194A1.17,1.17,0,0,1,1.477,20.914ZM1.632,8.526H1.617A1.167,1.167,0,0,1,.466,7.345L.544,1.152A1.17,1.17,0,0,1,1.709,0h.015A1.167,1.167,0,0,1,2.875,1.181L2.8,7.375A1.17,1.17,0,0,1,1.632,8.526Z" transform="translate(61.687 9.931)"/>
            <path id="Path-25" data-name="Path" d="M1.181,0,4.094.039A1.166,1.166,0,0,1,5.243,1.152V1.22L5.205,4.135a1.165,1.165,0,0,1-2.329.037V4.1L2.9,2.355,1.15,2.332A1.166,1.166,0,0,1,0,1.219V1.15A1.166,1.166,0,0,1,1.112,0Z" transform="translate(59.434 0.777)"/>
            <path id="Path-26" data-name="Path" d="M44.5,2.913h-.016l-6.19-.083a1.167,1.167,0,0,1-1.15-1.182A1.17,1.17,0,0,1,38.307.5h.016l6.191.083a1.166,1.166,0,0,1,1.15,1.181A1.17,1.17,0,0,1,44.5,2.913ZM32.117,2.747H32.1l-6.19-.083a1.166,1.166,0,0,1-1.15-1.182A1.17,1.17,0,0,1,25.926.332h.016l6.19.083A1.166,1.166,0,0,1,33.282,1.6,1.171,1.171,0,0,1,32.117,2.747ZM19.736,2.581h-.016L13.531,2.5A1.166,1.166,0,0,1,13.546.166h.016l6.19.083A1.166,1.166,0,0,1,20.9,1.43,1.171,1.171,0,0,1,19.736,2.581ZM7.356,2.415H7.34L1.15,2.332A1.166,1.166,0,0,1,0,1.151,1.171,1.171,0,0,1,1.166,0h.016l6.19.083a1.167,1.167,0,0,1,1.15,1.182A1.169,1.169,0,0,1,7.356,2.415Z" transform="translate(9.926 0.119)"/>
            <path id="Path-27" data-name="Path" d="M1.22,0,4.133.039A1.166,1.166,0,0,1,4.171,2.37H4.1L2.354,2.347,2.331,4.1A1.166,1.166,0,0,1,1.218,5.246H1.15A1.166,1.166,0,0,1,0,4.134V4.066L.039,1.15A1.166,1.166,0,0,1,1.151,0Z" transform="translate(0.777 0)"/>
            <path id="Path-28" data-name="Path" d="M1.166,45.689H1.15A1.168,1.168,0,0,1,0,44.507l.083-6.194a1.17,1.17,0,0,1,1.165-1.15h.016a1.165,1.165,0,0,1,1.15,1.181l-.083,6.194A1.17,1.17,0,0,1,1.166,45.689ZM1.331,33.3H1.315A1.167,1.167,0,0,1,.166,32.12l.083-6.194a1.17,1.17,0,0,1,1.165-1.15H1.43a1.165,1.165,0,0,1,1.15,1.181L2.5,32.151A1.171,1.171,0,0,1,1.331,33.3ZM1.5,20.914H1.481a1.167,1.167,0,0,1-1.15-1.182l.083-6.194A1.17,1.17,0,0,1,1.58,12.388H1.6a1.168,1.168,0,0,1,1.15,1.182l-.083,6.194A1.171,1.171,0,0,1,1.5,20.914ZM1.663,8.526H1.647A1.165,1.165,0,0,1,.5,7.344L.58,1.151A1.171,1.171,0,0,1,1.745,0h.016A1.166,1.166,0,0,1,2.91,1.182L2.828,7.376A1.17,1.17,0,0,1,1.663,8.526Z" transform="translate(0.119 9.095)"/>
          </g>
          <g id="Group-3" data-name="Group" transform="translate(0 49.557)">
            <path id="Path-29" data-name="Path" d="M90.772,0h.453a1.166,1.166,0,0,1,.041,2.331h-.495q-.382,0-.87.019l-.5.017c-.762.029-1.605.074-2.524.139-3.127.221-6.58.627-10.275,1.264A103.15,103.15,0,0,0,46.152,13.9a79.838,79.838,0,0,0-27.4,23.15C10.236,48.516,4.606,62.711,2.321,79.912A1.165,1.165,0,1,1,.01,79.6C2.347,62.017,8.126,47.448,16.879,35.661a82.158,82.158,0,0,1,28.19-23.825A105.448,105.448,0,0,1,76.21,1.473C79.985.823,83.514.408,86.717.181c1.05-.074,2.006-.124,2.861-.152L90.1.014Q90.482,0,90.772,0Z" transform="translate(0 1.865)"/>
            <ellipse id="Oval-2" data-name="Oval" cx="2.952" cy="2.954" rx="2.952" ry="2.954" transform="translate(88.103 0)"/>
          </g>
        </g>
        <path id="mouse_1_" d="M27.969,7.152H2.8A2.786,2.786,0,0,1,0,4.353V2.8A2.786,2.786,0,0,1,2.8,0H27.969a2.786,2.786,0,0,1,2.8,2.8V4.353A2.786,2.786,0,0,1,27.969,7.152Z" transform="translate(52.76 291.707)"/>
        <g id="picture_2_" transform="translate(26.269 97.819)">
          <path id="Rectangle-6" data-name="Rectangle" d="M44.871,46.058l-43.706.007A1.167,1.167,0,0,1,0,44.9L.007,1.174A1.167,1.167,0,0,1,1.173.007L44.879,0a1.167,1.167,0,0,1,1.165,1.166l-.007,43.726A1.168,1.168,0,0,1,44.871,46.058ZM2.338,2.339,2.331,43.733l41.375-.007.007-41.394Z" transform="matrix(0.949, -0.316, 0.316, 0.949, 0, 14.536)"/>
          <path id="Path-30" data-name="Path" d="M27.9.64a1.166,1.166,0,0,1,2.11.989l-.03.064L2.205,56.613A1.166,1.166,0,0,1,.1,55.625l.03-.064Z" transform="translate(14.021 0.324)"/>
          <path id="Path-31" data-name="Path" d="M.124.644a1.165,1.165,0,0,1,1.5-.55l.064.03L56.926,27.8a1.166,1.166,0,0,1-.979,2.115l-.064-.03L.644,2.209A1.166,1.166,0,0,1,.124.644Z" transform="translate(0.347 14.122)"/>
        </g>
        <g id="layout_2_" transform="translate(67.031 72.226)">
          <rect id="Rectangle-7" data-name="Rectangle" width="50.427" height="49.599" transform="translate(9.964 1.408) rotate(9.933)" fill="#fff"/>
          <path id="Rectangle_-_Outline-2" data-name="Rectangle - Outline" d="M0,0H52.861V52.033H0ZM50.427,2.433H2.433V49.6H50.427Z" transform="translate(8.976 0) rotate(9.933)"/>
          <g id="Group-4" data-name="Group" transform="translate(8.299 9.111)">
            <g id="Group-5" data-name="Group" transform="translate(25.03 23.851)">
              <path id="Rectangle-8" data-name="Rectangle" d="M12.937,14.11H1.167A1.167,1.167,0,0,1,0,12.943V1.166A1.167,1.167,0,0,1,1.165,0H12.936A1.167,1.167,0,0,1,14.1,1.167V12.944A1.167,1.167,0,0,1,12.937,14.11ZM2.331,2.332v9.445h9.44V2.333Z" transform="translate(2.434 0) rotate(9.933)" fill="#937558"/>
              <path id="Path-32" data-name="Path" d="M14.093.211a1.166,1.166,0,0,1,1.4,1.866l-.059.044-13.6,9.523a1.166,1.166,0,0,1-1.4-1.866L.5,9.734Z" transform="translate(0.22 2.245)" fill="#937558"/>
            </g>
            <path id="Rectangle-9" data-name="Rectangle" d="M38.381,13.568l-37.215,0A1.167,1.167,0,0,1,0,12.4V1.166A1.167,1.167,0,0,1,1.165,0L38.38,0A1.167,1.167,0,0,1,39.546,1.17V12.4A1.167,1.167,0,0,1,38.381,13.568ZM2.331,2.332v8.9l34.884,0v-8.9Z" transform="translate(5.701 0) rotate(9.933)" fill="#937558"/>
            <path id="Path-33" data-name="Path" d="M.018.965A1.166,1.166,0,0,1,1.3.008l.068.01L20.013,3.283a1.166,1.166,0,0,1-.334,2.307l-.068-.01L.965,2.315A1.166,1.166,0,0,1,.018.965Z" transform="translate(0 31.732)" fill="#937558"/>
            <path id="Path-34" data-name="Path" d="M.018.965A1.166,1.166,0,0,1,1.3.008l.068.01L20.013,3.283a1.166,1.166,0,0,1-.334,2.307l-.068-.01L.965,2.315A1.166,1.166,0,0,1,.018.965Z" transform="translate(0.777 27.184)" fill="#937558"/>
            <path id="Path-35" data-name="Path" d="M.018.965A1.166,1.166,0,0,1,1.3.008l.068.01L20.013,3.283a1.166,1.166,0,0,1-.334,2.307l-.068-.01L.965,2.315A1.166,1.166,0,0,1,.018.965Z" transform="translate(1.554 22.637)" fill="#937558"/>
            <path id="Path-36" data-name="Path" d="M.018.965A1.166,1.166,0,0,1,1.3.008l.068.01L20.013,3.283a1.166,1.166,0,0,1-.334,2.307l-.068-.01L.965,2.315A1.166,1.166,0,0,1,.018.965Z" transform="translate(2.37 18.128)" fill="#937558"/>
            <path id="Path-37" data-name="Path" d="M39.6.008a1.166,1.166,0,0,1,.345,2.305l-.068.01L1.3,6.949A1.166,1.166,0,0,1,.959,4.644l.068-.01Z" transform="translate(3.574 6.623)" fill="#937558"/>
          </g>
        </g>
        <g id="button_3_" transform="translate(190.819 190.144)">
          <g id="button_4_" transform="translate(0 0)">
            <path id="Path-38" data-name="Path" d="M34.923,15.314H7.3A7.313,7.313,0,0,1,0,8.007v-.7A7.313,7.313,0,0,1,7.3,0h27.62a7.226,7.226,0,0,1,2.838.576,7.311,7.311,0,0,1,4.465,6.732v.7a7.308,7.308,0,0,1-7.3,7.307ZM7.3,2.332A4.986,4.986,0,0,0,2.331,7.307v.7A4.986,4.986,0,0,0,7.3,12.982h27.62a4.987,4.987,0,0,0,4.972-4.975v-.7a4.987,4.987,0,0,0-4.972-4.975Z" transform="translate(0 2.682)"/>
            <ellipse id="Oval-3" data-name="Oval" cx="10.061" cy="10.067" rx="10.061" ry="10.067" transform="translate(23.851)" fill="#937558"/>
          </g>
          <path id="line_7_" d="M31.388,0a1.166,1.166,0,0,1,.068,2.33l-.068,0H1.165A1.166,1.166,0,0,1,1.1,0l.068,0Z" transform="translate(18.452 26.275)"/>
        </g>
      </g>
    </g>
  </g>
</svg>
