<svg xmlns="http://www.w3.org/2000/svg" width="376.221" height="121.953" viewBox="0 0 376.221 121.953">
  <g id="Group_1357" data-name="Group 1357" transform="translate(20725.949 -3252.999)">
    <g id="logo-vector" transform="translate(-20850 2917.95)">
      <path id="Subtraction_9" data-name="Subtraction 9" d="M20942.967-2569h0c-2.148-2.576-1.9-5.02-.8-8.129a120.767,120.767,0,0,0,4.426-18.546c.457-2.5.975-5.327,1.551-8.026.188-.878.4-1.733.621-2.638l.021-.091.006-.019a36.746,36.746,0,0,0,1.426-10c-2.078,1.378-4.119,2.73-6.094,4.037-4.471,2.959-9.1,6.02-13.607,9.054-1.3.874-2.57,1.808-3.8,2.711-1.395,1.024-2.838,2.083-4.32,3.057a4.956,4.956,0,0,1-2.639.969c-1.561,0-2.512-1.348-2.611-3.7-.234-5.554,1.424-10.863,3.027-16l.006-.015c.15-.477.3-.958.445-1.428,1.455-4.7,3.082-9.437,4.652-14.015l.027-.075c.611-1.784,1.123-3.28,1.633-4.78.023-.076.053-.153.08-.228l.02-.052a1.844,1.844,0,0,0-.369-2.266c-6.9,3.935-11.986,9.884-16.908,15.637-5.1,5.969-8.992,12.881-12.754,19.565-.637,1.136-1.207,2.145-1.74,3.085a78.439,78.439,0,0,1-4.971,7.429,2.608,2.608,0,0,1-2.006,1.21,2.234,2.234,0,0,1-1.041-.277,2.64,2.64,0,0,1-1.5-2.889,29.946,29.946,0,0,1,.846-3.624l0-.013c.02-.076.041-.153.063-.229.041-.153.084-.305.125-.458,4.016-14.659,10.494-28.582,16.76-42.046l.01-.02.082-.18c1.889-4.059,3.844-8.257,5.7-12.412a27.87,27.87,0,0,0,1.988-5.531,85.654,85.654,0,0,0-12.6,14.277c-5.836,8.074-11.1,16.7-16.2,25.045l-.02.035c-4.086,6.693-8.311,13.614-12.8,20.2-1.734,2.545-3.619,5.063-5.441,7.5l-.1.133c-.578.772-1.2,1.594-1.8,2.409-1.105,1.487-2.221,2.241-3.316,2.241A4.157,4.157,0,0,1,20856-2590v-4a45.627,45.627,0,0,0,3.688-9.007l0-.009c.557-1.7,1.133-3.458,1.818-5.156,4.109-10.188,9.395-19.99,14.506-29.469,1.543-2.862,3.293-6.107,4.943-9.251l.1-.194c.65-1.249,1.387-2.661,2.693-2.661a2.619,2.619,0,0,1,1.244.367,2.114,2.114,0,0,1,1.238,2.211,7.553,7.553,0,0,1-1,2.587l-.42.761-.045.082c-4.725,8.594-9.611,17.481-13.729,26.578-1.043,2.3-2.088,4.664-3.1,6.951-.6,1.35-1.311,2.968-2.1,4.737a10.972,10.972,0,0,0,3.938-4.417l.023-.043c.191-.336.371-.653.568-.966,1.17-1.86,2.355-3.754,3.5-5.585l.025-.038c7.16-11.44,14.564-23.269,22.791-34.33a94.432,94.432,0,0,1,14.324-15.189l.141-.12c1.193-1.028,2.426-2.088,3.82-2.088a3.056,3.056,0,0,1,1.738.579,3.174,3.174,0,0,1,1.529,2.79,10.741,10.741,0,0,1-.742,3.263l-.086.258a180.461,180.461,0,0,1-8.736,20.354l-.008.012c-1.574,3.284-3.2,6.68-4.711,10.1-1.357,3.084-2.689,6.142-4.166,9.533l-.629,1.448q-.542,1.243-1.094,2.51a2.841,2.841,0,0,0,.408.032,1.762,1.762,0,0,0,1.658-1.228l.025-.047c.064-.121.125-.234.191-.338a74.972,74.972,0,0,1,9.008-11.309c3.314-3.492,6.82-6.729,10.42-10.012a21.013,21.013,0,0,1,7.271-4.271,5.964,5.964,0,0,1,1.963-.368,3.365,3.365,0,0,1,2.621,1.128,5.262,5.262,0,0,1,1.125,3.174,17.544,17.544,0,0,1-1.4,6.925l-.008.02c-.164.465-.3.869-.424,1.233-.715,2.145-1.486,4.312-2.23,6.408l-.062.17-.008.024a150.332,150.332,0,0,0-4.791,15.14c-.307,1.267-.514,2.536-.777,4.142l-.043.272c-.121.734-.258,1.565-.422,2.482,8.172-5.28,14.963-9.672,22.02-14.24a13.262,13.262,0,0,0-6.029-1.509,15.457,15.457,0,0,0-5.447,1.093,6.483,6.483,0,0,1-2.219.5,2.235,2.235,0,0,1-2.264-1.862,2.687,2.687,0,0,1,.189-2.218,3.991,3.991,0,0,1,2.7-1.652c5.762-1.213,10.85-4.072,15.77-6.837l.01,0c1.246-.7,2.658-1.494,4.051-2.237,2.477-1.321,3.729-3.109,4.322-6.174.955-4.933,1.977-9.94,2.879-14.358l.008-.044c2.381-11.689,4.842-23.775,6.551-35.8a3.679,3.679,0,0,1,.51-1.219c.1-.184.213-.38.3-.573h3c2.193,2.484,1.576,5.237.979,7.9-.119.521-.24,1.069-.336,1.591-1.672,9.247-3.518,18.621-5.3,27.688l-.043.225-.021.108c-.736,3.736-1.5,7.6-2.234,11.4-.035.155.064.331.211.6.086.151.186.337.289.562a120.264,120.264,0,0,0,12.018-11.992,129.181,129.181,0,0,0,10.2-13.447,165.928,165.928,0,0,0,10.381-18.732c.115-.233.221-.49.334-.762l.039-.091c.477-1.165,1.016-2.485,2.273-2.485a3.058,3.058,0,0,1,1.424.438c2.043,1.119,1.166,2.925.393,4.519-.049.1-.1.2-.148.305a167.187,167.187,0,0,1-15.426,26.154,118.6,118.6,0,0,1-9.648,11.6,104.366,104.366,0,0,1-11.311,10.3c-3.2,2.5-3.7,5.753-4.18,8.9a26.519,26.519,0,0,1-.84,4.034,1.148,1.148,0,0,0,.059.969c.395.657,1.566.871,2.506,1.042h.006c.281.051.547.1.762.155,7.605,1.943,15.365,3.774,22.869,5.546l4.221,1c1.5.356,3.031.708,4.512,1.048l.207.048c3.369.773,6.852,1.573,10.27,2.484l.406.105c1.166.3,2.484.634,3.031,1.595a2.584,2.584,0,0,1,.1,2.069,2.454,2.454,0,0,1-2.586,2.01,10.381,10.381,0,0,1-2.381-.392l-.043-.01c-2.99-.728-6.031-1.46-8.975-2.168l-.055-.013c-10.652-2.564-21.666-5.215-32.432-8.179a8.068,8.068,0,0,0-2.076-.34c-1.934,0-2.348,1.326-2.8,3.509-1.346,6.572-2.779,13.39-4.041,19.4l-.244,1.158c-1.027,4.9-2.092,9.972-3.121,14.951a14.917,14.917,0,0,1-3.215,7.086C20944.3-2569,20943.623-2569,20942.967-2569Zm9.273-59.3h0c-1.967.074-3.289,1.034-4.963,2.249l0,0c-.6.435-1.277.928-2.045,1.423a15.236,15.236,0,0,0,5,1.65c1.8,0,1.873-1.779,2.014-5.323Z" transform="translate(-20731.949 3026)" fill="#fff"/>
    </g>
    <g id="Group_1355" data-name="Group 1355" transform="translate(0 144.52)">
      <path id="Path_363" data-name="Path 363" d="M5.664-15.136,12.96-2.08l7.3-13.056L21.92,0h2.72L21.92-23.52,12.96-7.3,4-23.52,1.28,0H4ZM33.824-6.72h11.84L44.7-9.28h-9.92ZM39.68-17.344,43.52-8.32l.256.64L47.04,0h3.04L39.68-23.52,29.28,0h3.04l3.328-7.872.256-.576ZM60-11.04,67.68,0h3.36l-8-11.04ZM56-22.4V0h2.72V-22.4ZM57.5-20H62.08a5.985,5.985,0,0,1,2.544.512,4.03,4.03,0,0,1,1.728,1.472,4.2,4.2,0,0,1,.624,2.336,4.2,4.2,0,0,1-.624,2.336,4.03,4.03,0,0,1-1.728,1.472,5.985,5.985,0,0,1-2.544.512H57.5v2.4H62.08a8.928,8.928,0,0,0,3.888-.816,6.6,6.6,0,0,0,2.72-2.336A6.306,6.306,0,0,0,69.7-15.68a6.286,6.286,0,0,0-1.008-3.584,6.64,6.64,0,0,0-2.72-2.32A8.928,8.928,0,0,0,62.08-22.4H57.5Zm17.376.16h5.76V0h2.72V-19.84h5.76V-22.4H74.88Zm33.472-2.56L102.56-12.032,96.8-22.4H93.76l7.456,12.768V0h2.72V-9.664L111.392-22.4Zm25.92,0V-5.728L117.312-23.52V0h2.72V-16.672L136.992,1.12V-22.4ZM147.456-6.72H159.3l-.96-2.56h-9.92Zm5.856-10.624,3.84,9.024.256.64L160.672,0h3.04l-10.4-23.52L142.912,0h3.04l3.328-7.872.256-.576Z" transform="translate(-20544 3163)" fill="#fff"/>
      <path id="Path_362" data-name="Path 362" d="M2.56-22.4V0H5.28V-22.4Zm11.52,0L4.448-11.84,14.56,0h3.36L7.744-11.9l9.7-10.5Zm9.76,11.2a9.645,9.645,0,0,1,.624-3.5,8.2,8.2,0,0,1,1.776-2.8,8.167,8.167,0,0,1,2.7-1.84A8.582,8.582,0,0,1,32.32-20a8.582,8.582,0,0,1,3.376.656,8.167,8.167,0,0,1,2.7,1.84,8.2,8.2,0,0,1,1.776,2.8,9.645,9.645,0,0,1,.624,3.5,9.645,9.645,0,0,1-.624,3.5A8.2,8.2,0,0,1,38.4-4.9a8.167,8.167,0,0,1-2.7,1.84A8.582,8.582,0,0,1,32.32-2.4a8.582,8.582,0,0,1-3.376-.656,8.167,8.167,0,0,1-2.7-1.84,8.2,8.2,0,0,1-1.776-2.8A9.645,9.645,0,0,1,23.84-11.2Zm-2.88,0a12.081,12.081,0,0,0,.848,4.544,10.94,10.94,0,0,0,2.384,3.664A11.132,11.132,0,0,0,27.808-.56,11.46,11.46,0,0,0,32.32.32a11.427,11.427,0,0,0,4.528-.88,11.177,11.177,0,0,0,3.6-2.432,10.94,10.94,0,0,0,2.384-3.664A12.081,12.081,0,0,0,43.68-11.2a12.045,12.045,0,0,0-.848-4.56,10.979,10.979,0,0,0-2.384-3.648,11.177,11.177,0,0,0-3.6-2.432,11.427,11.427,0,0,0-4.528-.88,11.46,11.46,0,0,0-4.512.88,11.132,11.132,0,0,0-3.616,2.432,10.979,10.979,0,0,0-2.384,3.648A12.045,12.045,0,0,0,20.96-11.2ZM51.552-6.784,49.376-5.312a12.439,12.439,0,0,0,1.9,2.768A9.24,9.24,0,0,0,54-.464,7.38,7.38,0,0,0,57.376.32a7.479,7.479,0,0,0,2.576-.448,7.128,7.128,0,0,0,2.208-1.28A5.969,5.969,0,0,0,63.7-3.424a6.136,6.136,0,0,0,.56-2.656,5.918,5.918,0,0,0-.544-2.64,6.383,6.383,0,0,0-1.392-1.888,8.333,8.333,0,0,0-1.84-1.3,15.53,15.53,0,0,0-1.888-.832,20.219,20.219,0,0,1-2.48-1.024,7.161,7.161,0,0,1-1.6-1.056,3.346,3.346,0,0,1-.848-1.152,3.346,3.346,0,0,1-.256-1.312,2.715,2.715,0,0,1,.368-1.376,2.805,2.805,0,0,1,1.136-1.056,4.149,4.149,0,0,1,1.984-.416,4.482,4.482,0,0,1,2.224.512A5.27,5.27,0,0,1,60.672-18.3a9.216,9.216,0,0,1,1.056,1.632l2.336-1.344a9.049,9.049,0,0,0-1.5-2.256,7.808,7.808,0,0,0-2.32-1.76,6.967,6.967,0,0,0-3.184-.688,7.282,7.282,0,0,0-3.36.752,5.772,5.772,0,0,0-2.3,2.064,5.439,5.439,0,0,0-.832,2.976,5.233,5.233,0,0,0,.592,2.592,5.826,5.826,0,0,0,1.52,1.776,9.732,9.732,0,0,0,1.952,1.184q1.024.464,1.856.752A21.59,21.59,0,0,1,58.9-9.616a5.241,5.241,0,0,1,1.84,1.456,3.779,3.779,0,0,1,.7,2.4,3.39,3.39,0,0,1-.5,1.824,3.391,3.391,0,0,1-1.376,1.248,4.569,4.569,0,0,1-2.1.448,4.93,4.93,0,0,1-2.4-.576,6.542,6.542,0,0,1-1.9-1.6A16.681,16.681,0,0,1,51.552-6.784Zm21.5-4.416a9.645,9.645,0,0,1,.624-3.5,8.2,8.2,0,0,1,1.776-2.8,8.167,8.167,0,0,1,2.7-1.84A8.582,8.582,0,0,1,81.536-20a8.582,8.582,0,0,1,3.376.656,8.167,8.167,0,0,1,2.7,1.84,8.2,8.2,0,0,1,1.776,2.8,9.645,9.645,0,0,1,.624,3.5,9.645,9.645,0,0,1-.624,3.5,8.2,8.2,0,0,1-1.776,2.8,8.167,8.167,0,0,1-2.7,1.84,8.582,8.582,0,0,1-3.376.656,8.582,8.582,0,0,1-3.376-.656,8.167,8.167,0,0,1-2.7-1.84A8.2,8.2,0,0,1,73.68-7.7,9.645,9.645,0,0,1,73.056-11.2Zm-2.88,0a12.081,12.081,0,0,0,.848,4.544,10.94,10.94,0,0,0,2.384,3.664A11.132,11.132,0,0,0,77.024-.56a11.46,11.46,0,0,0,4.512.88,11.427,11.427,0,0,0,4.528-.88,11.177,11.177,0,0,0,3.6-2.432,10.94,10.94,0,0,0,2.384-3.664A12.081,12.081,0,0,0,92.9-11.2a12.045,12.045,0,0,0-.848-4.56,10.979,10.979,0,0,0-2.384-3.648,11.177,11.177,0,0,0-3.6-2.432,11.427,11.427,0,0,0-4.528-.88,11.46,11.46,0,0,0-4.512.88,11.132,11.132,0,0,0-3.616,2.432,10.979,10.979,0,0,0-2.384,3.648A12.045,12.045,0,0,0,70.176-11.2Zm48.736,5.28-6.656-17.6-6.528,17.6L99.776-22.4h-3.04l8.8,23.52,6.72-17.408,6.72,17.408,8.8-23.52h-3.04Zm15.776-.864-2.176,1.472a12.439,12.439,0,0,0,1.9,2.768,9.24,9.24,0,0,0,2.72,2.08,7.38,7.38,0,0,0,3.376.784,7.479,7.479,0,0,0,2.576-.448,7.128,7.128,0,0,0,2.208-1.28,5.969,5.969,0,0,0,1.536-2.016,6.136,6.136,0,0,0,.56-2.656,5.918,5.918,0,0,0-.544-2.64,6.383,6.383,0,0,0-1.392-1.888,8.333,8.333,0,0,0-1.84-1.3,15.529,15.529,0,0,0-1.888-.832,20.22,20.22,0,0,1-2.48-1.024,7.161,7.161,0,0,1-1.6-1.056,3.346,3.346,0,0,1-.848-1.152,3.346,3.346,0,0,1-.256-1.312,2.715,2.715,0,0,1,.368-1.376,2.805,2.805,0,0,1,1.136-1.056,4.149,4.149,0,0,1,1.984-.416,4.482,4.482,0,0,1,2.224.512,5.27,5.27,0,0,1,1.552,1.312,9.216,9.216,0,0,1,1.056,1.632l2.336-1.344a9.049,9.049,0,0,0-1.5-2.256,7.808,7.808,0,0,0-2.32-1.76,6.967,6.967,0,0,0-3.184-.688,7.282,7.282,0,0,0-3.36.752,5.772,5.772,0,0,0-2.3,2.064,5.438,5.438,0,0,0-.832,2.976,5.233,5.233,0,0,0,.592,2.592,5.826,5.826,0,0,0,1.52,1.776,9.733,9.733,0,0,0,1.952,1.184q1.024.464,1.856.752a21.59,21.59,0,0,1,2.416,1.008,5.241,5.241,0,0,1,1.84,1.456,3.779,3.779,0,0,1,.7,2.4,3.39,3.39,0,0,1-.5,1.824A3.391,3.391,0,0,1,142.7-2.688a4.569,4.569,0,0,1-2.1.448,4.93,4.93,0,0,1-2.4-.576,6.542,6.542,0,0,1-1.9-1.6A16.682,16.682,0,0,1,134.688-6.784Zm19.9-15.616V0h2.72V-22.4Zm11.52,0L156.48-11.84,166.592,0h3.36L159.776-11.9l9.7-10.5Zm11.9,15.68h11.84l-.96-2.56h-9.92Zm5.856-10.624,3.84,9.024.256.64L191.232,0h3.04l-10.4-23.52L173.472,0h3.04l3.328-7.872.256-.576Z" transform="translate(-20544 3198)" fill="#fff"/>
    </g>
  </g>
</svg>
